<svg width="150" height="58" viewBox="0 0 150 58" fill="none" xmlns="http://www.w3.org/2000/svg">
<g id="yelp_logo.svg" clip-path="url(#clip0_1_535)">
<g id="Group">
<path id="Vector" d="M121.449 33.9857L123.903 33.4063C123.949 33.3911 124.039 33.3758 124.144 33.3453C124.822 33.1624 125.394 32.7202 125.756 32.1103C126.117 31.5004 126.238 30.7838 126.072 30.0824C126.072 30.0672 126.072 30.052 126.057 30.0367C125.982 29.7013 125.831 29.3963 125.635 29.1066C125.364 28.7559 125.018 28.4663 124.641 28.2375C124.19 27.9783 123.708 27.7496 123.226 27.5667L120.545 26.5756C119.04 26.0115 117.534 25.4626 116.013 24.9137C115.019 24.563 114.191 24.2428 113.468 24.0141C113.332 23.9684 113.182 23.9226 113.061 23.8921C112.188 23.6177 111.57 23.5109 111.043 23.4957C110.697 23.4804 110.351 23.5414 110.019 23.6787C109.688 23.8311 109.387 24.0446 109.131 24.319C109.01 24.4563 108.89 24.6087 108.785 24.7612C108.679 24.9137 108.589 25.0814 108.513 25.2491C108.423 25.4321 108.348 25.615 108.273 25.798C107.776 27.2922 107.52 28.8627 107.535 30.4331C107.55 31.8511 107.58 33.6808 108.348 34.9158C108.529 35.236 108.785 35.5104 109.086 35.7239C109.643 36.1051 110.2 36.166 110.772 36.1965C111.631 36.2575 112.474 36.0441 113.317 35.8459L121.449 33.9857Z" fill="#FF1A1A"/>
<path id="Vector_2" d="M148.781 20.8123C148.118 19.3943 147.214 18.0983 146.115 16.97C145.98 16.8328 145.829 16.6956 145.663 16.5736C145.513 16.4669 145.362 16.3602 145.197 16.2534C145.031 16.1619 144.865 16.0857 144.7 16.0095C144.353 15.8722 143.992 15.8113 143.63 15.8265C143.284 15.8418 142.938 15.9485 142.637 16.1162C142.17 16.3449 141.658 16.7261 140.995 17.3665C140.905 17.4579 140.784 17.5647 140.679 17.6714C140.122 18.2051 139.504 18.8454 138.766 19.6078C137.637 20.7666 136.508 21.9406 135.408 23.1146L133.421 25.2035C133.059 25.5847 132.728 25.9963 132.427 26.4385C132.171 26.8044 131.99 27.2313 131.9 27.6583C131.839 27.9937 131.854 28.3444 131.93 28.6798C131.93 28.6951 131.93 28.7103 131.945 28.7256C132.095 29.4117 132.517 30.0216 133.104 30.4027C133.692 30.7839 134.399 30.9364 135.092 30.7992C135.198 30.7839 135.288 30.7687 135.333 30.7534L145.919 28.2681C146.748 28.0699 147.606 27.887 148.344 27.4601C148.841 27.1704 149.323 26.8654 149.654 26.286C149.835 25.9658 149.94 25.5999 149.97 25.234C150.136 23.7702 149.383 22.1083 148.781 20.8123Z" fill="#FF1A1A"/>
<path id="Vector_3" d="M129.822 25.3255C130.59 24.3497 130.59 22.9012 130.65 21.6967C130.876 17.7172 131.117 13.753 131.313 9.77347C131.388 8.264 131.554 6.78503 131.463 5.26032C131.388 4.01006 131.388 2.57683 130.605 1.54003C129.22 -0.274377 126.283 -0.121906 124.28 0.152542C123.663 0.244025 123.046 0.350754 122.443 0.503225C121.841 0.655696 121.224 0.808168 120.636 1.00638C118.709 1.64676 116.013 2.82079 115.546 5.06211C115.29 6.32762 115.893 7.62362 116.375 8.7824C116.947 10.1851 117.73 11.4506 118.453 12.7771C120.35 16.2687 122.278 19.7298 124.205 23.2062C124.777 24.243 125.41 25.5542 126.524 26.0879C126.599 26.1184 126.675 26.1489 126.75 26.1794C127.247 26.3776 127.789 26.4081 128.316 26.2861C128.346 26.2861 128.376 26.2708 128.407 26.2708C128.888 26.1336 129.325 25.8744 129.656 25.5085C129.702 25.4475 129.762 25.3865 129.822 25.3255Z" fill="#FF1A1A"/>
<path id="Vector_4" d="M128.903 35.9679C128.601 35.541 128.18 35.2208 127.683 35.0531C127.186 34.8853 126.659 34.8853 126.162 35.0378C126.041 35.0836 125.936 35.1293 125.831 35.175C125.665 35.2665 125.499 35.358 125.349 35.48C124.912 35.8154 124.536 36.2423 124.204 36.6692C124.114 36.776 124.039 36.9285 123.933 37.0199L122.232 39.3985C121.268 40.725 120.319 42.0667 119.37 43.4085C118.753 44.2776 118.226 45.0247 117.804 45.6803C117.729 45.8023 117.639 45.9395 117.563 46.0462C117.051 46.8391 116.78 47.4185 116.63 47.9216C116.524 48.257 116.479 48.623 116.524 48.9737C116.569 49.3396 116.69 49.7055 116.886 50.0257C116.991 50.1934 117.097 50.3459 117.217 50.4831C117.337 50.6204 117.473 50.7576 117.609 50.8948C117.759 51.032 117.91 51.1692 118.075 51.276C119.25 52.0993 120.545 52.694 121.9 53.1666C123.03 53.5478 124.204 53.7765 125.379 53.8375C125.575 53.8527 125.785 53.8375 125.981 53.8222C126.162 53.807 126.358 53.7765 126.538 53.746C126.719 53.7003 126.9 53.6545 127.08 53.5935C127.427 53.4563 127.743 53.2581 127.999 52.9989C128.255 52.7397 128.436 52.4348 128.556 52.0993C128.752 51.5962 128.888 50.971 128.963 50.041C128.963 49.9037 128.993 49.7513 129.008 49.5988C129.068 48.8212 129.113 47.9064 129.159 46.8391C129.249 45.1924 129.309 43.5457 129.354 41.899L129.46 38.9716C129.49 38.3007 129.46 37.5536 129.279 36.8827C129.204 36.5625 129.083 36.2576 128.903 35.9679Z" fill="#FF1A1A"/>
<path id="Vector_5" d="M148.133 40.5572C147.772 40.1608 147.275 39.7644 146.477 39.2765C146.356 39.2155 146.221 39.124 146.1 39.0477C145.437 38.6513 144.639 38.2244 143.706 37.706C142.275 36.9132 140.845 36.1356 139.399 35.3732L136.839 34.001C136.703 33.9552 136.568 33.8637 136.447 33.8027C135.95 33.5588 135.438 33.3453 134.896 33.2386C134.716 33.2081 134.52 33.1776 134.339 33.1776C134.219 33.1776 134.098 33.1776 133.978 33.1929C133.466 33.2691 132.999 33.513 132.622 33.879C132.261 34.2449 132.005 34.7176 131.93 35.236C131.885 35.5714 131.9 35.8916 131.96 36.227C132.08 36.9132 132.382 37.5993 132.698 38.1939L134.068 40.7859C134.821 42.2496 135.589 43.6981 136.387 45.1466C136.899 46.0919 137.321 46.9 137.712 47.5709C137.788 47.6929 137.878 47.8301 137.938 47.9521C138.42 48.7602 138.812 49.2633 139.203 49.6292C139.459 49.8732 139.76 50.0714 140.092 50.1781C140.438 50.3001 140.814 50.3306 141.176 50.3001C141.357 50.2849 141.552 50.2391 141.733 50.2086C141.914 50.1629 142.094 50.1019 142.26 50.0257C142.456 49.9494 142.637 49.8732 142.802 49.7665C143.841 49.1718 144.79 48.4552 145.648 47.6166C146.672 46.5951 147.561 45.4973 148.269 44.2318C148.359 44.0488 148.449 43.8658 148.525 43.6676C148.585 43.4847 148.645 43.3169 148.69 43.134C148.735 42.951 148.765 42.7528 148.781 42.5698C148.811 42.2039 148.765 41.8227 148.66 41.472C148.57 41.1214 148.374 40.8164 148.133 40.5572Z" fill="#FF1A1A"/>
<path id="Vector_6" fill-rule="evenodd" clip-rule="evenodd" d="M60.2352 15.3995C60.2352 13.2649 61.9519 11.5267 64.0149 11.5267C66.0629 11.5267 67.7043 13.2649 67.7947 15.43V45.665C67.7947 47.7996 66.078 49.5378 64.0149 49.5378C61.8917 49.5378 60.2352 47.7996 60.2352 45.665V15.3995ZM56.7265 34.062C56.6964 34.6566 56.5458 35.7696 55.7778 36.5777C54.9496 37.4468 53.8202 37.6603 53.1726 37.6603C50.4621 37.6755 47.7666 37.6755 45.056 37.6908C42.3454 37.6908 39.6499 37.706 36.9393 37.7213C37.1803 38.4684 37.6471 39.6119 38.7163 40.664C39.3638 41.2891 39.9812 41.655 40.2523 41.8075C40.5835 42.021 41.6979 42.6156 43.0984 42.6156C44.5741 42.6156 45.8842 42.1277 47.1492 41.4721L47.2546 41.4111C48.143 40.9537 49.0466 40.4657 50.0103 40.298C50.959 40.1456 51.9679 40.3285 52.7058 40.9841C53.5943 41.7617 53.9406 42.9053 53.6244 44.0793C53.2329 45.4058 52.1487 46.5341 50.9891 47.2355C50.3416 47.6319 49.6338 47.9521 48.9261 48.2265C48.0075 48.562 47.0588 48.7907 46.1101 48.9431C45.1614 49.0956 44.1826 49.1566 43.2188 49.1261C42.752 49.1261 42.24 49.1261 41.7431 49.0651C41.216 49.0041 40.6739 48.8821 40.177 48.7602C39.3487 48.5772 38.5807 48.3028 37.8127 47.9521C37.0749 47.6166 36.337 47.205 35.6593 46.7171C34.9817 46.2292 34.3643 45.665 33.7619 45.0704C33.2048 44.4757 32.6627 43.8049 32.1958 43.0882C30.5996 40.6335 29.8617 37.5993 30.0123 34.6566C30.1328 31.7749 31.0815 28.8932 32.7982 26.5451C32.9789 26.2554 33.2048 25.9962 33.4005 25.7675C33.4909 25.6608 33.5812 25.5693 33.6565 25.4626C35.7798 22.8401 38.6109 22.0167 39.7704 21.6661L39.8306 21.6508C43.1736 20.6902 45.9445 21.3154 47.0739 21.6508C47.631 21.8033 50.7934 22.7943 53.2479 25.4626C53.3684 25.5846 53.6846 25.9657 54.1063 26.5451C55.6573 28.695 56.1994 30.6924 56.3802 31.3632V31.3785C56.5458 32.0493 56.7265 32.9489 56.7265 34.062ZM39.3638 29.1066C37.6471 30.5246 37.1803 32.3238 37.0598 32.8879H49.9501C49.8296 32.3543 49.3327 30.5094 47.616 29.1066C45.8692 27.6887 44.032 27.6124 43.4748 27.6124C42.9026 27.6124 41.0805 27.7039 39.3638 29.1066ZM88.395 21.1629C85.0219 21.1629 81.9499 22.6876 79.7664 25.1881V25.0967C79.676 23.084 78.0195 21.4678 76.0167 21.4678C73.9236 21.4678 72.237 23.1755 72.237 25.3101V54.1577C72.237 56.2922 73.9236 57.9999 76.0167 57.9999C78.1099 57.9999 79.7965 56.2922 79.7965 54.1577V53.0446V45.1466C81.98 47.6014 85.0369 49.1718 88.4251 49.1718C95.2016 49.1718 100.698 42.951 100.698 35.2055C100.668 27.46 95.1714 21.1629 88.395 21.1629ZM86.7385 42.89C82.8986 42.89 79.7664 39.4899 79.7664 35.2665C79.7664 30.9973 82.8685 27.6124 86.7385 27.6124C90.5785 27.6124 93.7107 31.0125 93.7107 35.2665C93.6806 39.5052 90.5785 42.89 86.7385 42.89ZM24.3051 37.2181L23.0702 39.9778C22.5131 41.1824 21.9408 42.4174 21.4138 43.6371C21.2481 44.0183 21.0674 44.3995 20.9018 44.7959C18.5376 50.1172 15.7366 56.4447 9.62279 57.7865C6.67128 58.4421 2.19884 57.5425 0.542379 54.7218C-1.11408 51.8706 1.34049 48.5925 4.50283 49.3548C4.99976 49.4615 5.4967 49.7207 5.99364 49.9647C6.82187 50.3764 7.6501 50.8033 8.55362 50.6203C9.41197 50.4678 9.93903 49.8427 10.6167 49.0346C11.5654 47.9216 11.972 46.7476 12.1527 46.0614C12.1376 46.0309 12.1225 46.0004 12.1075 45.9547C12.0924 45.9242 12.0774 45.8785 12.0623 45.848C11.2943 44.3995 10.6167 43.0882 10.0595 42.0057C9.69809 41.3043 9.38185 40.6792 9.1108 40.1761C8.55362 39.124 8.14704 38.3159 7.81575 37.706C6.86705 35.8916 6.71646 35.5867 6.29481 34.8091C5.37623 33.0404 4.39741 31.3327 3.40354 29.6098C2.30425 27.7497 1.1899 25.6761 2.10849 23.4805C2.84637 21.7118 4.74376 20.8122 6.55081 21.3764C8.43315 21.9558 9.27644 23.7854 10.0746 25.5083C10.2101 25.8133 10.3607 26.1182 10.4962 26.4232C11.7611 28.9694 13.011 31.5309 14.2458 34.0772C14.3512 34.3364 14.5169 34.6718 14.7277 35.0988C14.9084 35.4799 15.1192 35.9069 15.3451 36.3948C15.4656 36.6387 15.571 36.8827 15.6764 37.0809C15.8119 37.3553 15.9173 37.584 15.9926 37.767C16.5649 36.3033 17.1522 34.8548 17.7395 33.4063C18.3267 31.9579 18.914 30.5094 19.4863 29.0457C19.5013 28.9694 19.6368 28.6492 19.8477 28.1918C20.0284 27.7954 20.2543 27.2922 20.4952 26.7129C20.5705 26.5146 20.6608 26.3164 20.7512 26.103C21.5192 24.2123 22.4378 21.9253 24.4858 21.3154C25.9615 20.858 27.618 21.4678 28.4763 22.7334C28.913 23.3585 29.0937 24.0904 29.1238 24.807C29.154 26.4079 28.386 28.1156 27.7384 29.5793C27.5728 29.93 27.4222 30.2807 27.2867 30.6009C27.2867 30.6161 27.2566 30.6771 27.2114 30.7838C27.0307 31.1955 26.5337 32.3085 25.6905 34.1534C25.3893 34.8091 25.0881 35.4647 24.802 36.1356C24.6363 36.4862 24.4707 36.8522 24.3051 37.2181Z" fill="black"/>
<path id="Vector_7" d="M103.559 46.6409H103.83C103.965 46.6409 104.071 46.6104 104.161 46.5342C104.236 46.4579 104.282 46.3665 104.282 46.2597C104.282 46.1378 104.251 46.0463 104.176 45.9853C104.101 45.9243 103.995 45.8938 103.83 45.8938H103.559V46.6409ZM104.658 46.2597C104.658 46.397 104.628 46.5189 104.553 46.6257C104.477 46.7324 104.387 46.8086 104.251 46.8544L104.854 47.8759H104.432L103.905 46.9611H103.559V47.8759H103.182V45.5889H103.845C104.131 45.5889 104.327 45.6498 104.462 45.7566C104.598 45.8633 104.658 46.031 104.658 46.2597ZM101.978 46.7171C101.978 46.3817 102.068 46.0463 102.234 45.7566C102.399 45.4516 102.64 45.2229 102.926 45.04C103.227 44.8722 103.544 44.7808 103.89 44.7808C104.221 44.7808 104.553 44.8722 104.839 45.04C105.14 45.2077 105.366 45.4516 105.546 45.7413C105.712 46.0463 105.802 46.3665 105.802 46.7171C105.802 47.0526 105.727 47.3728 105.562 47.6625C105.396 47.9522 105.17 48.1961 104.869 48.3791C104.568 48.562 104.251 48.6535 103.89 48.6535C103.544 48.6535 103.212 48.562 102.926 48.3943C102.625 48.2114 102.399 47.9827 102.234 47.6777C102.068 47.3728 101.978 47.0678 101.978 46.7171ZM102.249 46.7171C102.249 47.0068 102.324 47.2965 102.474 47.5557C102.625 47.8149 102.821 48.0131 103.077 48.1656C103.333 48.3181 103.604 48.3791 103.89 48.3791C104.191 48.3791 104.462 48.3028 104.703 48.1504C104.959 47.9979 105.155 47.7997 105.306 47.5405C105.456 47.2813 105.531 47.0068 105.531 46.7019C105.531 46.397 105.456 46.1225 105.306 45.8786C105.155 45.6193 104.959 45.4211 104.703 45.2687C104.447 45.1162 104.176 45.04 103.875 45.04C103.574 45.04 103.303 45.1162 103.062 45.2687C102.806 45.4211 102.61 45.6193 102.459 45.8786C102.324 46.1378 102.249 46.4274 102.249 46.7171Z" fill="black"/>
</g>
</g>
<defs>
<clipPath id="clip0_1_535">
<rect width="150" height="58" fill="white"/>
</clipPath>
</defs>
</svg>
