<svg width="92" height="92" viewBox="0 0 92 92" fill="none" xmlns="http://www.w3.org/2000/svg">
<g id="google_symbol.svg">
<path id="Vector" d="M86.48 46.9584C86.48 43.9684 86.2117 41.0934 85.7133 38.3334H46V54.6442H68.6933C67.7158 59.915 64.745 64.3809 60.2792 67.3709V77.9509H73.9067C81.88 70.61 86.48 59.8 86.48 46.9584Z" fill="#4285F4"/>
<path id="Vector_2" d="M46 88.1666C57.385 88.1666 66.93 84.3908 73.9067 77.9508L60.2792 67.3708C56.5034 69.9008 51.6734 71.3958 46 71.3958C35.0175 71.3958 25.7217 63.9783 22.4059 54.0116H8.31836V64.9366C15.2567 78.7174 29.5167 88.1666 46 88.1666Z" fill="#34A853"/>
<path id="Vector_3" d="M22.4065 54.0117C21.5632 51.4817 21.084 48.7792 21.084 46C21.084 43.2209 21.5632 40.5184 22.4065 37.9884V27.0634H8.31899C5.36732 32.9393 3.83138 39.4244 3.83399 46C3.83399 52.8042 5.46315 59.2442 8.31899 64.9367L22.4065 54.0117Z" fill="#FBBC05"/>
<path id="Vector_4" d="M46 20.6042C52.1909 20.6042 57.7492 22.7317 62.1192 26.91L74.2134 14.8159C66.9109 8.01171 57.3659 3.83337 46 3.83337C29.5167 3.83337 15.2567 13.2825 8.31836 27.0634L22.4059 37.9884C25.7217 28.0217 35.0175 20.6042 46 20.6042Z" fill="#EA4335"/>
</g>
</svg>
