<svg width="82" height="82" viewBox="0 0 82 82" fill="none" xmlns="http://www.w3.org/2000/svg">
<g id="Group">
<path id="Path" d="M51.0038 71.0128H60.0543C63.7377 71.0128 66.7237 68.0268 66.7237 64.3433V14.3225C66.7237 12.4808 65.2307 10.9878 63.389 10.9878H57.1964C55.3547 10.9878 53.8617 12.4808 53.8617 14.3225V22.0124" stroke="#00A3FF" stroke-width="5" stroke-linecap="round" stroke-linejoin="round"/>
<path id="Path_2" fill-rule="evenodd" clip-rule="evenodd" d="M30.2853 44.5083C23.2231 44.6217 17.5576 50.379 17.5576 57.4421C17.5576 64.5051 23.2231 70.2624 30.2853 70.3758C40.823 70.3758 43.4074 57.4371 49.4466 53.999C44.9463 47.9514 37.8231 44.4233 30.2853 44.5083Z" stroke="#00A3FF" stroke-width="5" stroke-linecap="round" stroke-linejoin="round"/>
<path id="Path_3" d="M31.8462 56.0332C24.6137 57.2437 18.2399 61.4792 14.3222 67.6781" stroke="#00A3FF" stroke-width="5" stroke-linecap="round" stroke-linejoin="round"/>
<path id="Path_4" d="M10.9872 36.7118L36.6646 14.7027C39.1605 12.5679 42.839 12.5679 45.3349 14.7027L71.0122 36.7118" stroke="#00A3FF" stroke-width="5" stroke-linecap="round" stroke-linejoin="round"/>
</g>
</svg>
