<svg width="60" height="66" viewBox="0 0 60 66" fill="none" xmlns="http://www.w3.org/2000/svg">
<g id="Group">
<rect id="Rectangle" x="16.666" y="36.3335" width="10" height="13.3333" rx="1" stroke="#00A3FF" stroke-width="5" stroke-linecap="round" stroke-linejoin="round"/>
<path id="Path" d="M18.333 26.3334L24.9997 26.333" stroke="#00A3FF" stroke-width="5" stroke-linecap="round" stroke-linejoin="round"/>
<path id="Path_2" d="M18.333 16.3334L24.9997 16.333" stroke="#00A3FF" stroke-width="5" stroke-linecap="round" stroke-linejoin="round"/>
<path id="Path_3" d="M56.6663 21.3333H44.9997C41.3178 21.3333 38.333 18.3486 38.333 14.6667V3" stroke="#00A3FF" stroke-width="5" stroke-linecap="round" stroke-linejoin="round"/>
<path id="Path_4" fill-rule="evenodd" clip-rule="evenodd" d="M53.7374 13.4044L46.2619 5.92893C44.3866 4.05357 41.843 3 39.1909 3H13.333C7.81016 3 3.33301 7.47715 3.33301 13V53C3.33301 58.5228 7.81016 63 13.333 63H46.6663C52.1892 63 56.6663 58.5228 56.6663 53V20.4755C56.6663 17.8233 55.6128 15.2798 53.7374 13.4044Z" stroke="#00A3FF" stroke-width="5" stroke-linecap="round" stroke-linejoin="round"/>
</g>
</svg>
