<svg width="82" height="82" viewBox="0 0 82 82" fill="none" xmlns="http://www.w3.org/2000/svg">
<g id="Group">
<path id="Path" d="M57.6736 67.6778H42.6674C38.9839 67.6778 35.9979 64.6918 35.9979 61.0083V57.6736C35.9979 48.465 43.463 41 52.6715 41H66.0104C69.6939 41 72.6799 43.986 72.6799 47.6694V62.6757" stroke="#00A3FF" stroke-width="5" stroke-linecap="round" stroke-linejoin="round"/>
<ellipse id="Oval" cx="64.3431" cy="62.6757" rx="8.3368" ry="8.33681" stroke="#00A3FF" stroke-width="5" stroke-linecap="round" stroke-linejoin="round"/>
<path id="Path_2" fill-rule="evenodd" clip-rule="evenodd" d="M12.6549 61.0083H22.659C25.4216 61.0083 27.6611 63.2478 27.6611 66.0104V67.6777C27.6611 69.5195 26.1681 71.0125 24.3264 71.0125H10.9875C9.14578 71.0125 7.65277 69.5195 7.65277 67.6777V66.0104C7.65277 63.2478 9.89228 61.0083 12.6549 61.0083Z" stroke="#00A3FF" stroke-width="5" stroke-linecap="round" stroke-linejoin="round"/>
<path id="Path_3" d="M48.4954 41.5922L51.673 26.7634C52.4983 22.912 51.5389 18.894 49.0627 15.8309C46.5864 12.7678 42.8586 10.9878 38.9198 10.9878V10.9878C32.7722 10.983 27.4576 15.2755 26.1689 21.2865C22.9403 36.3538 17.657 61.0086 17.657 61.0086" stroke="#00A3FF" stroke-width="5" stroke-linecap="round" stroke-linejoin="round"/>
</g>
</svg>
