<svg width="164" height="101" viewBox="0 0 164 101" fill="none" xmlns="http://www.w3.org/2000/svg">
<g id="Group 41587">
<path id="Vector" d="M5.49513 93.1004L0 72.5706L9.08216 70.1344C10.3519 69.7938 11.5828 69.7781 12.7748 70.0869C13.9618 70.3762 14.979 70.931 15.8266 71.7516C16.6938 72.5667 17.2949 73.5999 17.63 74.8514C17.9595 76.0831 17.9578 77.2888 17.6244 78.4677C17.3054 79.622 16.7068 80.6315 15.8286 81.4957C14.9504 82.3599 13.8766 82.9622 12.6069 83.3028L7.77297 84.5994L9.74338 91.961L5.49513 93.1004ZM17.1262 89.9805L9.43069 82.1115L13.7462 80.1683L22.232 88.6426L17.1262 89.9805ZM6.81507 81.0215L11.4441 79.7796C11.9716 79.6383 12.3993 79.3979 12.7268 79.0584C13.069 78.6943 13.2899 78.2684 13.3897 77.7804C13.4843 77.273 13.4581 76.7458 13.3117 76.1982C13.1545 75.6116 12.8917 75.1374 12.5225 74.7753C12.1536 74.4134 11.6934 74.1804 11.1425 74.0769C10.586 73.9535 9.98547 73.9784 9.34108 74.1514L5.26875 75.2437L6.81507 81.0215ZM34.3508 85.5489C32.6906 85.9944 31.1145 86.0502 29.6228 85.717C28.1454 85.359 26.8731 84.6733 25.8066 83.66C24.7345 82.6274 23.992 81.3386 23.5787 79.794L20.1874 67.124L24.6113 65.9374L27.9317 78.3435C28.1517 79.1646 28.5361 79.8577 29.0851 80.4231C29.6288 80.9688 30.2655 81.3533 30.9954 81.5768C31.7446 81.7949 32.5097 81.7993 33.2909 81.5896C34.0919 81.3748 34.7622 80.9856 35.3021 80.4214C35.8613 79.8522 36.2404 79.1953 36.4387 78.4506C36.6513 77.681 36.648 76.8857 36.4279 76.0646L33.1075 63.6585L37.3847 62.5114L40.776 75.181C41.1896 76.7257 41.1901 78.2135 40.7776 79.6444C40.3599 81.0557 39.5909 82.2887 38.4706 83.3437C37.3646 84.3738 35.9914 85.1089 34.3508 85.5489ZM57.5222 79.4594C55.9403 79.8837 54.4144 80.0101 52.945 79.8384C51.49 79.6419 50.1557 79.1931 48.9422 78.4917C47.7286 77.7903 46.6856 76.8651 45.8126 75.7162C44.9594 74.5619 44.3313 73.232 43.9285 71.7265C43.5253 70.2211 43.4175 68.762 43.6048 67.3498C43.806 65.9126 44.2696 64.5937 44.995 63.3933C45.7345 62.168 46.698 61.1133 47.8847 60.2292C49.0715 59.345 50.4559 58.6908 52.0381 58.2663C53.132 57.9729 54.2161 57.8393 55.2907 57.8655C56.3652 57.8915 57.3808 58.0488 58.3373 58.337C59.2935 58.6254 60.1343 59.0287 60.8589 59.5465L58.9036 63.1517C58.265 62.7993 57.6179 62.5326 56.9625 62.3521C56.3214 62.147 55.6748 62.0374 55.0221 62.0239C54.3642 61.9908 53.7132 62.0606 53.0685 62.2337C52.1506 62.4799 51.3455 62.8738 50.6531 63.4159C49.9803 63.9525 49.4297 64.5929 49.0006 65.3365C48.5716 66.0804 48.2983 66.8974 48.1809 67.7882C48.083 68.6737 48.1596 69.5857 48.4108 70.5242C48.6568 71.4431 49.0558 72.2686 49.6075 73.0007C50.1739 73.7081 50.8309 74.2864 51.579 74.7352C52.3417 75.1595 53.1703 75.4399 54.0653 75.5771C54.9551 75.6947 55.859 75.6304 56.7769 75.3842C57.4216 75.2114 58.0105 74.9486 58.5441 74.5958C59.0779 74.2431 59.5125 73.8332 59.8478 73.3661C60.1977 72.874 60.4243 72.3523 60.5277 71.8005C60.651 71.2435 60.6391 70.6914 60.4927 70.1441L60.3041 69.4402L61.1101 70.104L55.2504 71.6757L54.2694 68.0098L63.7615 65.4635C63.8387 65.6735 63.9289 65.9321 64.032 66.2396C64.155 66.5422 64.2581 66.8497 64.342 67.1624C64.4399 67.4506 64.5126 67.6825 64.5595 67.8586C64.9155 69.1882 64.9985 70.4756 64.8085 71.721C64.6381 72.9612 64.2303 74.0973 63.5856 75.1297C62.9603 76.1565 62.1317 77.0494 61.0996 77.8082C60.0626 78.5474 58.87 79.0978 57.5222 79.4594ZM83.6652 72.1326L71.9296 53.2766L76.4415 52.0665L82.8507 62.6378C83.0975 63.0118 83.3349 63.43 83.5635 63.8926C83.8064 64.3306 84.0171 64.7665 84.196 65.2004C84.3893 65.6095 84.5578 66.0045 84.7017 66.3851C84.8597 66.7409 84.9923 67.0407 85.0993 67.2841L84.3882 67.4437C84.3443 66.5753 84.3077 65.8516 84.2782 65.2727C84.2437 64.6743 84.2178 64.1468 84.2001 63.6905C84.1971 63.2094 84.2134 62.7231 84.2492 62.2314L85.2033 52.891L88.8361 51.9166L94.2689 59.5438C94.6604 60.0674 94.9977 60.5847 95.2808 61.0956C95.5783 61.5814 95.8442 62.0656 96.0777 62.5478C96.3063 63.0104 96.5374 63.4827 96.7712 63.9649L96.158 64.255C96.1067 63.8288 96.0515 63.4664 95.9925 63.1677C95.9478 62.8445 95.9012 62.553 95.8527 62.2938C95.8238 62.0291 95.7948 61.7644 95.7659 61.4997C95.7317 61.2157 95.7066 60.8869 95.6906 60.514C95.6691 60.1218 95.6713 59.66 95.6966 59.1295L95.9536 46.8324L100.407 45.6381L99.603 67.8574L96.351 68.73L88.0326 57.9475L88.5171 57.8804L87.0344 71.2288L83.6652 72.1326ZM105.289 66.3321L107.822 43.649L111.748 42.596L125.241 60.9805L120.729 62.1909L113.639 52.242C113.438 51.9605 113.184 51.5991 112.877 51.1575C112.59 50.7106 112.286 50.237 111.963 49.7365C111.641 49.2364 111.336 48.7627 111.049 48.3158C110.757 47.8493 110.527 47.4604 110.36 47.149L111.143 46.9075C111.147 47.3886 111.135 47.8946 111.11 48.4251C111.099 48.9311 111.083 49.4594 111.063 50.0095C111.038 50.5403 111 51.0639 110.95 51.5801C110.9 52.0965 110.857 52.6006 110.82 53.0922L109.626 65.1692L105.289 66.3321ZM107.856 61.023L108.342 57.0891L117.747 54.5664L120.161 57.7223L107.856 61.023ZM134.85 58.7176C133.58 59.058 132.376 59.2134 131.238 59.1836C130.119 59.1482 129.068 58.9376 128.086 58.5515C127.122 58.1603 126.204 57.621 125.329 56.9334L127.243 53.0566C128.556 54.1295 129.746 54.7845 130.815 55.0219C131.897 55.2344 132.995 55.1914 134.108 54.8927C134.714 54.7304 135.23 54.5082 135.657 54.2258C136.098 53.9189 136.414 53.5725 136.604 53.1863C136.793 52.8001 136.831 52.3919 136.715 51.9618C136.631 51.6488 136.487 51.3838 136.283 51.1663C136.073 50.9292 135.814 50.747 135.508 50.6195C135.197 50.4724 134.844 50.3681 134.451 50.306C134.052 50.2243 133.622 50.1823 133.161 50.1804C132.695 50.1586 132.197 50.1768 131.668 50.235C130.507 50.2742 129.469 50.2278 128.554 50.0959C127.634 49.9444 126.83 49.678 126.142 49.2968C125.449 48.896 124.874 48.3901 124.417 47.7792C123.98 47.1631 123.646 46.4247 123.416 45.5644C123.181 44.6847 123.159 43.8207 123.35 42.973C123.537 42.1057 123.899 41.3066 124.436 40.5757C124.992 39.8398 125.681 39.2044 126.501 38.6703C127.34 38.1307 128.268 37.7246 129.283 37.4522C130.533 37.1171 131.666 36.9702 132.682 37.0122C133.693 37.0343 134.611 37.2178 135.436 37.5623C136.28 37.9016 137.039 38.3896 137.712 39.0264L135.651 42.4712C135.094 42.0337 134.522 41.6947 133.934 41.4543C133.366 41.2086 132.775 41.0737 132.162 41.0497C131.562 41.0008 130.97 41.0549 130.384 41.2122C129.739 41.385 129.206 41.6224 128.785 41.9241C128.358 42.2062 128.049 42.5402 127.86 42.9266C127.69 43.3076 127.665 43.7227 127.785 44.1723C127.879 44.5243 128.051 44.8136 128.3 45.0402C128.549 45.2668 128.868 45.4432 129.258 45.569C129.642 45.6756 130.09 45.744 130.6 45.775C131.111 45.8056 131.665 45.8037 132.263 45.7689C133.395 45.6957 134.437 45.72 135.391 45.8415C136.345 45.9629 137.192 46.1965 137.934 46.5426C138.69 46.8636 139.325 47.3218 139.84 47.9172C140.35 48.493 140.718 49.201 140.943 50.0418C141.315 51.4302 141.299 52.7022 140.897 53.8579C140.494 55.0136 139.778 56.0125 138.747 56.8547C137.712 57.6775 136.412 58.2983 134.85 58.7176ZM159.523 51.7849L154.028 31.2551L158.423 30.0762L163.918 50.606L159.523 51.7849ZM146.603 55.2504L141.108 34.7206L145.503 33.5417L150.998 54.0718L146.603 55.2504ZM146.155 46.5376L145.117 42.5413L158.506 38.9499L159.573 42.9385L146.155 46.5376Z" fill="white"/>
<path id="Vector_2" d="M51.0833 101L48.086 89.8019L49.2207 89.4974L59.1344 97.2287L58.9878 97.5765C58.9103 97.4144 58.8151 97.1657 58.7024 96.8301C58.6003 96.4917 58.4815 96.1121 58.3461 95.6912C58.2185 95.2567 58.0864 94.8062 57.9502 94.34C57.8139 93.8736 57.6805 93.4178 57.5501 92.9729C57.4301 92.5249 57.3218 92.1197 57.2247 91.757L56.1242 87.6455L57.3706 87.3113L60.3678 98.5094L59.2014 98.8225L49.3538 91.2107L49.4556 90.8232C49.6017 91.2413 49.741 91.6554 49.8739 92.0656C50.017 92.473 50.1455 92.8671 50.2588 93.2483C50.3829 93.6265 50.4932 93.974 50.5894 94.2912C50.6856 94.6083 50.7637 94.8788 50.8238 95.1027C50.8944 95.3238 50.9424 95.4825 50.9683 95.5783L52.3299 100.665L51.0833 101ZM63.6617 97.6259L60.6642 86.4277L67.4399 84.6103L67.7655 85.8262L62.2362 87.3093L64.5827 96.0757L70.08 94.6012L70.4054 95.8171L63.6617 97.6259ZM62.8582 92.3206L62.5326 91.1047L67.8383 89.6815L68.1637 90.8974L62.8582 92.3206ZM75.3535 94.4899L68.9843 84.196L70.3265 83.8361L74.4623 90.6482C74.6159 90.8814 74.7507 91.108 74.8668 91.3283C74.9909 91.535 75.1025 91.7396 75.2024 91.9414C75.2991 92.1326 75.3973 92.3292 75.4971 92.5309C75.5939 92.7222 75.6937 92.924 75.7963 93.1366L75.5203 93.1934C75.5274 92.6657 75.5352 92.2464 75.5432 91.9356C75.5622 91.622 75.584 91.3418 75.6093 91.0948C75.6347 90.848 75.662 90.5665 75.6915 90.2499L76.3056 84.9929L77.4719 84.6799L80.6583 88.9691C80.866 89.2332 81.0535 89.4861 81.2208 89.7268C81.3879 89.9678 81.5514 90.2154 81.7108 90.4699C81.8809 90.7213 82.0544 91.0064 82.2308 91.3247L81.9879 91.4415C81.97 91.1605 81.954 90.9305 81.9402 90.7511C81.9267 90.572 81.9187 90.4141 81.9162 90.2775C81.9113 90.1303 81.9074 89.9885 81.9052 89.8518C81.9 89.7047 81.8997 89.5333 81.9044 89.3379C81.9063 89.1314 81.9115 88.873 81.9195 88.5622L82.12 80.6728L83.4626 80.3126L83.0558 92.4238L82.0171 92.7024L77.0702 86.3137L77.3705 86.2844L76.3762 94.2156L75.3535 94.4899ZM96.0217 88.9459L94.5273 83.363L94.849 84.1168L88.6138 78.9308L90.1318 78.5237L95.261 82.8402L94.9169 82.8984L96.9077 76.7063L98.3459 76.3204L95.7749 84.0569L95.7234 82.9048L97.2521 88.6158L96.0217 88.9459ZM107.369 86.0738C106.58 86.2853 105.813 86.3424 105.068 86.245C104.33 86.1343 103.643 85.89 103.005 85.5124C102.378 85.132 101.833 84.6324 101.37 84.0133C100.916 83.3809 100.577 82.6489 100.354 81.8169C100.132 80.985 100.061 80.1867 100.141 79.4221C100.23 78.644 100.451 77.9332 100.804 77.2898C101.165 76.6329 101.638 76.0772 102.225 75.6229C102.819 75.1547 103.51 74.8152 104.298 74.6038C105.098 74.3893 105.866 74.3377 106.603 74.4484C107.349 74.5455 108.036 74.7898 108.666 75.181C109.304 75.5586 109.85 76.0634 110.305 76.6961C110.768 77.3149 111.11 78.0403 111.333 78.8723C111.553 79.6935 111.618 80.4931 111.53 81.2712C111.449 82.0358 111.228 82.7466 110.867 83.4035C110.514 84.047 110.041 84.6026 109.446 85.0705C108.86 85.5251 108.168 85.8594 107.369 86.0738ZM107.039 84.8419C107.646 84.6791 108.177 84.4224 108.631 84.0718C109.093 83.708 109.457 83.2733 109.721 82.7681C109.985 82.2627 110.146 81.7109 110.203 81.1128C110.267 80.5011 110.213 79.8698 110.038 79.2192C109.861 78.5582 109.594 77.984 109.235 77.4974C108.884 76.9972 108.468 76.5942 107.987 76.2892C107.505 75.9839 106.974 75.7893 106.392 75.7054C105.821 75.6185 105.231 75.6566 104.624 75.8194C104.017 75.9823 103.482 76.2459 103.02 76.6097C102.569 76.971 102.211 77.4041 101.946 77.9095C101.682 78.4146 101.523 78.9716 101.469 79.5806C101.412 80.1787 101.472 80.8086 101.649 81.4697C101.823 82.1203 102.085 82.6958 102.436 83.196C102.784 83.6857 103.199 84.0831 103.68 84.3884C104.162 84.6937 104.688 84.8897 105.259 84.9763C105.838 85.0498 106.432 85.0048 107.039 84.8419ZM115.255 83.787L112.257 72.5888L116.636 71.4143C117.286 71.2401 117.913 71.2376 118.518 71.4068C119.131 71.5625 119.661 71.8604 120.11 72.3001C120.559 72.7398 120.872 73.2902 121.049 73.9513C121.214 74.5698 121.215 75.1699 121.051 75.7512C120.887 76.3323 120.589 76.841 120.157 77.2766C119.723 77.7019 119.187 78 118.547 78.1714L115.319 79.0373L116.501 83.4527L115.255 83.787ZM122.078 81.9566L117.947 77.7839L119.034 77.0466L123.564 81.558L122.078 81.9566ZM114.994 77.8217L118.334 76.9257C118.728 76.82 119.05 76.6364 119.3 76.375C119.549 76.1139 119.718 75.8056 119.806 75.4506C119.89 75.0849 119.879 74.6996 119.77 74.2944C119.653 73.8571 119.448 73.495 119.154 73.2079C118.86 72.9208 118.507 72.7301 118.093 72.6352C117.69 72.5374 117.26 72.5501 116.801 72.673L113.829 73.4704L114.994 77.8217ZM125.826 77.265L125.38 75.7902L130.03 67.8218L131.708 67.3716L125.826 77.265ZM125.804 80.9574L122.807 69.7592L124.053 69.4247L127.05 80.6228L125.804 80.9574ZM133.299 78.9468L127.207 74.1685L127.904 73.1243L134.865 78.527L133.299 78.9468Z" fill="#BBBBBB"/>
<g id="Group" filter="url(#filter0_i_1_69)">
<path id="Vector_3" d="M84.1663 21.8062C81.2986 14.5191 73.8723 8.23473 70.6553 6.21062C71.317 5.43774 100.067 1.74808 114.359 0L112.981 2.62226C118.716 5.49295 123.183 13.0194 124.699 16.4236L84.1663 21.8062Z" fill="white"/>
</g>
<g id="Group_2" filter="url(#filter1_i_1_69)">
<path id="Vector_4" d="M43.082 48.0291L43.2025 48.0128C44.5136 47.6805 47.8657 42.3286 49.4239 39.6102C51.5195 35.8563 52.9624 29.7652 53.422 27.189C54.8558 18.6873 58.7989 13.2496 60.5911 11.5934C61.8044 9.93728 64.2217 8.69515 65.2786 8.28111C68.5875 7.50823 71.5287 9.61515 72.5856 10.7654C75.5636 13.084 80.628 20.8404 82.7878 24.4287C83.0084 25.2016 83.9826 25.2107 84.4422 25.1188L93.6793 23.7387C95.0029 23.7387 94.8741 24.8428 94.6444 25.3948L94.2308 26.4989L91.7492 33.2616C88.2198 40.9904 82.466 43.0145 80.0305 43.0606L73.8264 43.8887L43.2025 48.0128C43.1603 48.0236 43.12 48.0291 43.082 48.0291Z" fill="white"/>
</g>
<g id="Group_3" filter="url(#filter2_i_1_69)">
<path id="Vector_5" d="M51.3539 26.3608L21.2987 28.7071C25.7105 41.1835 32.5578 44.5326 35.3612 44.5787C29.8465 45.6828 24.194 37.816 22.1259 33.8136C20.0304 29.2867 18.4035 28.2469 17.8521 28.293C17.9623 29.9492 20.6554 34.5037 21.9881 36.5739C27.7234 45.0755 32.6499 46.7408 34.3962 46.5109C43.4403 46.8421 49.4698 33.2154 51.3539 26.3608Z" fill="white"/>
</g>
<g id="Group_4" filter="url(#filter3_i_1_69)">
<path id="Vector_6" d="M116.427 1.24219L115.324 3.03637C116.933 3.86445 120.729 6.56952 123.045 10.7651C123.642 12.1914 125.582 15.292 128.56 16.2857C126.023 9.99226 119.414 3.63452 116.427 1.24219Z" fill="white"/>
</g>
</g>
<defs>
<filter id="filter0_i_1_69" x="70.6553" y="0" width="54.0441" height="31.8062" filterUnits="userSpaceOnUse" color-interpolation-filters="sRGB">
<feFlood flood-opacity="0" result="BackgroundImageFix"/>
<feBlend mode="normal" in="SourceGraphic" in2="BackgroundImageFix" result="shape"/>
<feColorMatrix in="SourceAlpha" type="matrix" values="0 0 0 0 0 0 0 0 0 0 0 0 0 0 0 0 0 0 127 0" result="hardAlpha"/>
<feOffset dy="10"/>
<feGaussianBlur stdDeviation="15"/>
<feComposite in2="hardAlpha" operator="arithmetic" k2="-1" k3="1"/>
<feColorMatrix type="matrix" values="0 0 0 0 0 0 0 0 0 0 0 0 0 0 0 0 0 0 0.3 0"/>
<feBlend mode="normal" in2="shape" result="effect1_innerShadow_1_69"/>
</filter>
<filter id="filter1_i_1_69" x="43.082" y="8.11475" width="51.7087" height="49.9146" filterUnits="userSpaceOnUse" color-interpolation-filters="sRGB">
<feFlood flood-opacity="0" result="BackgroundImageFix"/>
<feBlend mode="normal" in="SourceGraphic" in2="BackgroundImageFix" result="shape"/>
<feColorMatrix in="SourceAlpha" type="matrix" values="0 0 0 0 0 0 0 0 0 0 0 0 0 0 0 0 0 0 127 0" result="hardAlpha"/>
<feOffset dy="10"/>
<feGaussianBlur stdDeviation="15"/>
<feComposite in2="hardAlpha" operator="arithmetic" k2="-1" k3="1"/>
<feColorMatrix type="matrix" values="0 0 0 0 0 0 0 0 0 0 0 0 0 0 0 0 0 0 0.3 0"/>
<feBlend mode="normal" in2="shape" result="effect1_innerShadow_1_69"/>
</filter>
<filter id="filter2_i_1_69" x="17.8521" y="26.3608" width="33.5018" height="24.1699" filterUnits="userSpaceOnUse" color-interpolation-filters="sRGB">
<feFlood flood-opacity="0" result="BackgroundImageFix"/>
<feBlend mode="normal" in="SourceGraphic" in2="BackgroundImageFix" result="shape"/>
<feColorMatrix in="SourceAlpha" type="matrix" values="0 0 0 0 0 0 0 0 0 0 0 0 0 0 0 0 0 0 127 0" result="hardAlpha"/>
<feOffset dy="4"/>
<feGaussianBlur stdDeviation="2"/>
<feComposite in2="hardAlpha" operator="arithmetic" k2="-1" k3="1"/>
<feColorMatrix type="matrix" values="0 0 0 0 0 0 0 0 0 0 0 0 0 0 0 0 0 0 0.25 0"/>
<feBlend mode="normal" in2="shape" result="effect1_innerShadow_1_69"/>
</filter>
<filter id="filter3_i_1_69" x="115.324" y="1.24219" width="13.2353" height="19.0435" filterUnits="userSpaceOnUse" color-interpolation-filters="sRGB">
<feFlood flood-opacity="0" result="BackgroundImageFix"/>
<feBlend mode="normal" in="SourceGraphic" in2="BackgroundImageFix" result="shape"/>
<feColorMatrix in="SourceAlpha" type="matrix" values="0 0 0 0 0 0 0 0 0 0 0 0 0 0 0 0 0 0 127 0" result="hardAlpha"/>
<feOffset dy="4"/>
<feGaussianBlur stdDeviation="2"/>
<feComposite in2="hardAlpha" operator="arithmetic" k2="-1" k3="1"/>
<feColorMatrix type="matrix" values="0 0 0 0 0 0 0 0 0 0 0 0 0 0 0 0 0 0 0.25 0"/>
<feBlend mode="normal" in2="shape" result="effect1_innerShadow_1_69"/>
</filter>
</defs>
</svg>
