<svg width="169" height="44" viewBox="0 0 169 44" fill="none" xmlns="http://www.w3.org/2000/svg">
<g id="united_airlines_logo.svg" clip-path="url(#clip0_1_466)">
<g id="Logos_x2F_United-Logo_x5F_Rebrand_x5F_Large">
<g id="Group">
<g id="united_globe_4p_h_rgb_r_21Apr2022">
<path id="Fill-1" fill-rule="evenodd" clip-rule="evenodd" d="M9.69945 5.62207C6.40545 5.62207 3.11145 6.17207 0.000453122 7.33318V8.49429C0.183453 8.43318 0.488453 8.31096 0.976453 8.18874C1.22045 8.12763 1.46445 8.06651 1.70845 8.06651C1.76945 8.06651 1.89145 8.06651 1.95245 8.0054C5.00245 7.57763 7.62545 8.18874 9.21145 10.0221C12.6885 13.9943 9.82145 22.1221 2.80645 28.2332C1.89145 29.0276 0.976453 29.6998 0.0614531 30.3721L0.000453122 30.4332V32.3887C0.305453 32.2054 0.549453 32.0221 0.854453 31.7776C1.22045 32.3887 3.72145 36.4221 3.78245 36.4832C3.96545 36.361 4.51445 35.9943 5.18545 35.5665C5.91745 35.0165 6.83245 34.4054 7.68645 33.6721C7.74745 33.611 7.74745 33.611 7.80845 33.5498L3.96545 29.0887C4.33145 28.7221 5.67345 27.3776 6.71045 26.1554C6.95445 26.3387 10.1875 28.8443 11.4685 30.0054C12.5055 28.9054 13.4205 27.7443 14.2135 26.5832C12.4445 25.4221 8.78445 23.2832 8.78445 23.2832C9.39445 22.3054 9.94345 21.3276 10.3705 20.3498C10.3705 20.3498 14.6405 22.061 16.4095 22.9165C16.8975 21.9998 17.2635 21.0221 17.5685 20.1054C17.6295 19.9832 17.6295 19.7998 17.6905 19.6776C15.4945 18.8221 11.6515 17.8443 11.2855 17.7832C11.5295 16.9276 11.6515 16.1332 11.7125 15.3387C14.8845 15.6443 17.7515 16.3776 18.3005 16.4998C18.3615 15.5832 18.3615 14.7276 18.2395 13.9332C14.7625 13.3221 11.9565 13.3221 11.5905 13.3221C11.5295 12.711 11.3465 12.0998 11.1635 11.5498C11.1635 11.5498 14.2745 11.3054 17.5075 11.6721C17.3245 11.3054 17.1415 10.9387 16.8975 10.6332C16.7145 10.3887 16.3485 9.96096 16.3485 9.96096C16.3485 9.96096 13.6035 9.77763 10.4315 10.2054C10.1265 9.77763 9.76045 9.41096 9.45545 9.1054C9.51645 9.1054 11.9565 8.5554 14.8235 8.5554C14.0305 8.0054 13.1765 7.63874 13.1765 7.63874C10.9195 7.69985 8.54045 8.31096 8.35745 8.37207C7.68645 8.0054 7.19845 7.82207 7.13745 7.82207C7.32045 7.76096 9.02845 7.21096 10.3095 7.08874C8.60145 6.84429 6.22245 7.39429 5.91745 7.4554C5.55145 7.39429 5.00245 7.33318 4.63645 7.27207C4.63645 7.27207 5.91745 6.9054 7.62545 6.66096C9.15045 6.41651 14.3355 5.8054 17.6905 10.2665C20.8015 14.4832 19.7035 21.0832 15.4335 27.3776C14.3355 29.0887 12.9935 30.7387 11.4075 32.3276C10.1265 33.6721 8.78445 34.8332 7.50345 35.8721C5.55145 37.461 3.41645 38.8054 1.28145 39.9054C0.854453 40.1498 0.366453 40.3943 -0.0605469 40.5776V42.5943C3.59945 40.8832 5.73445 39.2332 5.73445 39.2332L8.78445 43.5721C8.78445 43.5721 11.1635 42.1054 13.5425 40.0887L9.88245 35.9332C11.2855 34.711 12.5665 33.3665 13.7255 32.0221C13.7255 32.0221 17.5075 35.3832 17.9345 35.811C19.1545 34.4665 20.2525 32.9998 21.2285 31.5332C19.2765 29.9443 16.6535 28.1721 16.6535 28.1721C16.6535 28.1721 18.1785 25.6665 18.8495 24.1387C18.8495 24.1387 21.3505 25.4832 23.7295 27.0721C24.3395 25.7887 24.7665 24.4443 25.1325 23.0387C23.5465 22.1221 20.1305 20.5332 20.1305 20.5332C20.4355 19.3721 20.6185 18.211 20.6795 17.111C20.6795 17.111 23.1805 17.9054 25.7425 19.1887C25.8035 18.0887 25.7425 17.0498 25.4984 16.011C23.3634 14.9721 20.4965 14.2998 20.4965 14.2998C20.3745 13.4443 20.0695 12.5887 19.7645 11.8554C19.7645 11.8554 22.3875 12.3443 24.6445 13.261C24.0955 11.9776 23.3634 11.2443 23.3634 11.2443C21.8995 10.4498 18.5445 9.83874 18.5445 9.83874C18.1785 9.34985 17.7515 8.92207 17.3245 8.5554C18.3615 8.67763 20.0084 9.1054 20.0084 9.1054C18.1784 8.18874 16.1655 7.69985 16.1655 7.69985C16.1655 7.69985 15.7385 7.4554 15.2505 7.14985C15.2505 7.14985 20.3134 8.18874 23.0585 10.2665C23.3025 10.4498 23.5464 10.6943 23.7905 10.8776C24.0954 11.1221 24.2785 11.4276 24.5225 11.7332C30.0125 19.2498 25.2545 33.6721 11.9565 43.8165H16.8975C16.6535 43.511 15.9825 42.7776 15.8605 42.7165C17.4465 41.2498 18.9105 39.7221 20.2525 38.0721L23.5464 41.3721C24.8274 39.9054 26.0475 38.3165 27.0845 36.6665C27.0845 36.6665 25.3764 35.0165 23.4855 33.3665C24.9494 30.9832 25.8645 28.5998 25.8645 28.5998C25.9865 28.7221 27.8165 30.0665 29.6464 31.7776C30.5614 29.8221 31.1105 27.3165 31.1105 27.3165C29.2194 25.5443 27.2064 24.3221 27.2064 24.3221C27.5114 22.9776 27.6945 21.6332 27.7554 20.2887C27.7554 20.2887 29.8295 21.511 31.6595 23.0998C31.6595 21.9387 31.5985 20.7165 31.3545 19.6165C29.5855 18.0887 27.5725 17.0498 27.5725 17.0498C27.5725 17.0498 27.3895 15.7665 26.7185 14.1776C26.8405 14.2387 27.8165 14.7276 29.4634 15.9498C28.1824 14.2387 25.9254 12.5887 25.9254 12.5887C25.6814 12.2221 25.4375 11.8554 25.1934 11.4887C27.0234 12.7721 28.7314 14.2387 30.1954 15.8887C30.7444 16.561 31.2325 17.4776 31.6595 18.4554C31.7815 18.761 31.8425 19.0054 31.9645 19.311C33.1845 23.4665 32.4524 28.111 31.0494 31.8998C29.4635 36.2998 26.7794 40.3943 23.6684 43.8776H29.5245C30.0735 43.0832 30.6224 42.2887 31.1105 41.4332C30.7444 40.8221 28.9145 38.7443 28.9145 38.7443C29.8905 37.1554 30.8054 35.3832 31.4764 33.6721C31.4764 33.6721 32.6964 35.0165 33.6115 36.361C34.5264 34.161 34.9534 31.8387 34.9534 31.8387C34.3434 30.7998 32.9404 29.1498 32.9404 29.1498C33.2454 27.7443 33.4284 26.3387 33.4284 24.8721C34.1604 25.7276 35.0755 27.0721 35.0755 27.0721C34.8924 24.4443 33.5504 22.061 33.2454 21.5721C33.2454 21.511 33.2454 21.4498 33.2454 21.3887C33.0625 20.4721 32.7575 19.4943 32.5745 18.9443C34.0994 21.2054 35.0755 23.711 35.0755 23.711C35.6854 25.361 36.0514 27.3776 36.0514 29.5776C36.0514 30.7387 35.8074 36.911 31.1105 43.8776H32.5745C33.4285 42.2276 34.4044 40.211 35.0755 38.4998C35.0755 38.561 35.4414 39.4165 35.6854 40.2721C36.1735 38.4998 36.5395 36.6665 36.7225 34.7721C36.6614 34.5276 36.5394 34.161 36.4785 33.9165C36.4785 33.9165 36.7835 32.3276 36.9054 30.4943C37.0884 31.7776 37.1495 32.9998 37.1495 34.3443C37.1495 36.6054 36.9054 38.7443 36.3564 40.8832C36.1124 41.9221 35.7464 42.961 35.4414 43.9387H36.7225C37.7594 40.8832 38.3084 37.7054 38.3084 34.4665C38.4305 18.5776 25.5595 5.62207 9.69945 5.62207ZM0.000453122 24.6276V28.4776C0.671453 28.0498 1.34245 27.561 2.01345 27.011L0.000453122 24.6276ZM0.915453 8.73874C0.610453 8.92207 0.305453 9.16651 0.000453122 9.41096V10.3276C0.793453 9.71651 1.83045 8.98318 2.68445 8.49429C2.13545 8.5554 1.52545 8.61651 0.915453 8.73874ZM3.47745 23.8332C2.44045 23.0998 0.000453122 21.3887 0.000453122 21.3887V19.311C1.76945 16.7443 2.01345 13.8721 0.488453 12.4054C0.366453 12.2832 0.183453 12.161 0.000453122 12.0387V10.9998C0.000453122 10.9998 2.25745 9.22763 4.02645 8.43318C4.45345 8.49429 4.88045 8.49429 5.24645 8.61652C2.56245 9.71652 0.610453 11.1221 0.488453 11.2443C0.732453 11.4276 1.03745 11.611 1.03745 11.611C1.09845 11.611 3.66045 9.96096 6.46645 8.98318C6.83245 9.16651 7.19845 9.34985 7.56445 9.6554C4.45345 10.511 1.52545 12.0998 1.52545 12.0998C1.70845 12.2832 1.83045 12.5276 1.95245 12.711H2.01345C5.18545 11.4276 8.54045 10.6943 8.54045 10.6943C8.78445 11.061 9.02845 11.4276 9.21145 11.9165C9.21145 11.9165 6.22245 12.2832 2.31845 13.5054C2.44045 14.0554 2.50145 14.4221 2.50145 14.4221C2.50145 14.4221 6.16145 13.6276 9.51645 13.5054C9.57745 14.0554 9.51645 14.6665 9.45545 15.2776C7.44245 15.1554 2.68445 15.3998 2.50145 15.461C2.50145 15.461 2.50145 16.1332 2.31845 16.8054C2.31845 16.8054 5.79545 16.9276 8.96745 17.4776C8.72345 18.211 8.41845 19.0054 8.05245 19.7387C5.97845 19.1276 2.74545 18.3332 1.89145 18.1498C1.64745 18.6998 1.40345 19.2498 1.03745 19.7387C1.03745 19.7387 4.94145 21.4498 6.40545 22.3054C5.73445 23.2832 4.45345 24.6276 4.45345 24.6276C4.20945 24.3832 3.84345 24.0776 3.47745 23.8332Z" fill="white"/>
<path id="Fill-3" fill-rule="evenodd" clip-rule="evenodd" d="M9.69945 5.62222C25.4985 5.62222 38.3695 18.5778 38.3695 34.4667C38.3695 37.7056 37.8205 40.8833 36.7835 43.9389H43.7985V0H0.000453126V7.33333C3.11145 6.17222 6.40545 5.62222 9.69945 5.62222ZM0.000453126 19.3111C1.76945 16.7444 2.01345 13.8722 0.488453 12.4056C0.366453 12.2833 0.183453 12.1611 0.000453126 12.0389V19.3111ZM9.15045 10.0222C7.56445 8.18889 4.94145 7.57778 1.89145 8.00556C1.83045 8.00556 1.70845 8.00556 1.64745 8.06667C1.40345 8.12778 1.15945 8.12778 0.915453 8.18889C0.427453 8.31111 0.122453 8.43333 -0.0605469 8.49444V9.41111C0.244453 9.16667 0.549453 8.92222 0.854453 8.73889C1.46445 8.61667 2.07445 8.55556 2.62345 8.49444C1.76945 8.98333 0.732453 9.65555 -0.0605469 10.3278V11C-0.0605469 11 2.19645 9.22778 3.96545 8.43333C4.39245 8.49444 4.81945 8.49444 5.18545 8.61667C2.50145 9.71667 0.549453 11.1222 0.427453 11.2444C0.671453 11.4278 0.976453 11.6111 0.976453 11.6111C1.03745 11.6111 3.59945 9.96111 6.40545 8.98333C6.77145 9.16667 7.13745 9.35 7.50345 9.65556C4.39245 10.5111 1.46445 12.1 1.46445 12.1C1.64745 12.2833 1.76945 12.5278 1.89145 12.7111H1.95245C5.18545 11.4278 8.54045 10.6944 8.54045 10.6944C8.78445 11.0611 9.02845 11.4278 9.21145 11.9167C9.21145 11.9167 6.22245 12.2833 2.31845 13.5056C2.44045 14.0556 2.50145 14.4222 2.50145 14.4222C2.50145 14.4222 6.16145 13.6278 9.51645 13.5056C9.57745 14.0556 9.51645 14.6667 9.45545 15.2778C7.44245 15.1556 2.68445 15.4 2.50145 15.4611C2.50145 15.4611 2.50145 16.1333 2.31845 16.8056C2.31845 16.8056 5.79545 16.9278 8.96745 17.4778C8.72345 18.2111 8.41845 19.0056 8.05245 19.7389C5.97845 19.1278 2.74545 18.3333 1.89145 18.15C1.64745 18.7 1.40345 19.25 1.03745 19.7389C1.03745 19.7389 4.94145 21.45 6.40545 22.3056C5.73445 23.2833 4.45345 24.6278 4.45345 24.6278C4.08745 24.3222 3.72145 24.0778 3.41645 23.8333C2.44045 23.1 0.000453126 21.3889 0.000453126 21.3889V24.6278L2.01345 27.0111C1.34245 27.5611 0.671453 28.05 0.000453126 28.4778V30.4333L0.0614531 30.3722C0.976453 29.7611 1.89145 29.0278 2.80645 28.2333C9.76045 22.1222 12.6275 13.9944 9.15045 10.0222ZM17.7515 10.3889C14.4575 5.92778 9.27245 6.53889 7.68645 6.78333C5.97845 7.02778 4.69745 7.39444 4.69745 7.39444C5.06345 7.45556 5.61245 7.51667 5.97845 7.57778C6.28345 7.51667 8.66245 6.96667 10.3705 7.21111C9.08945 7.33333 7.38145 7.88333 7.19845 7.94444C7.25945 7.94444 7.74745 8.12778 8.41845 8.49444C8.60145 8.43333 10.9805 7.82222 13.2375 7.76111C13.2375 7.76111 14.0915 8.12778 14.8845 8.67778C11.9565 8.67778 9.57745 9.22778 9.51645 9.22778C9.88245 9.53333 10.1875 9.9 10.4925 10.3278C13.6645 9.83889 16.4095 10.0833 16.4095 10.0833C16.4095 10.0833 16.7755 10.5111 16.9585 10.7556C17.1415 11.0611 17.3855 11.4278 17.5685 11.7944C14.3355 11.4278 11.2245 11.6722 11.2245 11.6722C11.4075 12.2222 11.5295 12.8333 11.5905 13.4444C11.9565 13.4444 14.7015 13.4444 18.2395 14.0556C18.3615 14.85 18.3615 15.7056 18.3005 16.6222C17.6905 16.4389 14.8235 15.7667 11.7125 15.4611C11.6515 16.2556 11.5295 17.05 11.2855 17.9056C11.6515 17.9667 15.4945 18.9444 17.6905 19.8C17.6295 19.9222 17.6295 20.0444 17.5685 20.2278C17.2635 21.1444 16.8975 22.1222 16.4095 23.0389C14.6405 22.1833 10.3705 20.4722 10.3705 20.4722C9.94345 21.45 9.39445 22.4278 8.78445 23.4056C8.78445 23.4056 12.4445 25.4833 14.2135 26.7056C13.4205 27.8667 12.4445 29.0278 11.4685 30.1278C10.1875 28.9667 6.95445 26.4611 6.71045 26.2778C5.67345 27.5 4.39245 28.8444 3.96545 29.2111L7.80845 33.6722C7.74745 33.7333 7.74745 33.7333 7.68645 33.7944C6.83245 34.4667 5.97845 35.1389 5.18545 35.6889C4.51445 36.1167 3.96545 36.4833 3.78245 36.6056C3.72145 36.4222 1.22045 32.3889 0.854453 31.7167C0.549453 31.9 0.305453 32.1444 0.000453126 32.3278V40.6389C0.427453 40.3944 0.915453 40.2111 1.34245 39.9667C3.53845 38.8667 5.61245 37.5222 7.56445 35.9333C8.84545 34.9556 10.1265 33.7333 11.4685 32.3889C12.9935 30.8 14.3355 29.15 15.4945 27.4389C19.7645 21.1444 20.9235 14.6056 17.7515 10.3889ZM24.5225 11.8556C24.2785 11.55 24.0955 11.2444 23.7905 11C23.5465 10.7556 23.3025 10.5722 23.0585 10.3889C20.3135 8.31111 15.2505 7.27222 15.2505 7.27222C15.7385 7.51667 16.1045 7.82222 16.1655 7.82222C16.1655 7.82222 18.2395 8.31111 20.0085 9.22778C20.0085 9.22778 18.3615 8.86111 17.3245 8.67778C17.7515 9.04444 18.1785 9.53333 18.5445 9.96111C18.5445 9.96111 21.8995 10.5722 23.3635 11.3667C23.3635 11.3667 24.0955 12.1 24.6445 13.3833C22.3265 12.4667 19.7645 11.9778 19.7645 11.9778C20.1305 12.7722 20.3745 13.5667 20.4965 14.4222C20.4965 14.4222 23.3635 15.0944 25.4985 16.1333C25.6815 17.1722 25.7425 18.2111 25.7425 19.3111C23.1805 18.0278 20.6795 17.2333 20.6795 17.2333C20.6185 18.3333 20.4355 19.4944 20.1305 20.6556C20.1305 20.6556 23.6075 22.1833 25.1325 23.1611C24.7665 24.5667 24.2785 25.9111 23.7295 27.1944C21.3505 25.6667 18.8495 24.2611 18.8495 24.2611C18.2395 25.7889 16.6535 28.2944 16.6535 28.2944C16.7145 28.2944 19.2765 30.1278 21.2285 31.6556C20.2525 33.1222 19.1545 34.5889 17.9345 35.9333C17.5075 35.5056 13.7255 32.1444 13.7255 32.1444C12.5665 33.4889 11.2855 34.7722 9.88245 36.0556L13.5425 40.2111C11.1635 42.1667 8.78445 43.6944 8.78445 43.6944L5.73445 39.3556C5.73445 39.3556 3.59945 41.0056 -0.0605469 42.7167V44H11.8955C25.2545 33.8556 30.0125 19.3722 24.5225 11.8556ZM23.6685 43.9389C26.7795 40.4556 29.4635 36.3611 31.0495 31.9611C32.4525 28.1722 33.1845 23.4667 31.9645 19.3722C31.9035 19.1278 31.7815 18.8222 31.6595 18.5167C31.2935 17.4778 30.7445 16.6222 30.1955 15.95C28.7315 14.3 27.0235 12.7722 25.1935 11.55C25.4375 11.9167 25.7425 12.2833 25.9255 12.65C25.9255 12.65 28.1825 14.3 29.4635 16.0111C27.8165 14.7889 26.8405 14.3611 26.7185 14.2389C27.3285 15.8278 27.5725 17.1111 27.5725 17.1111C27.5725 17.1111 29.5855 18.15 31.3545 19.6778C31.5985 20.8389 31.7205 22 31.6595 23.1611C29.8295 21.5722 27.7555 20.35 27.7555 20.35C27.6945 21.6944 27.5115 23.0389 27.2065 24.3833C27.2065 24.3833 29.1585 25.6056 31.1105 27.3778C31.1105 27.3778 30.5615 29.8833 29.6465 31.8389C27.8165 30.1278 25.9865 28.7833 25.8645 28.6611C25.8645 28.6611 24.9495 31.0444 23.4855 33.4278C25.3155 35.0167 27.0845 36.7278 27.0845 36.7278C26.0475 38.3778 24.8275 39.9667 23.5465 41.4333L20.2525 38.1333C18.9105 39.7833 17.4465 41.3722 15.8605 42.7778C15.9215 42.8389 16.5925 43.5722 16.8975 43.8778H23.6685V43.9389ZM29.5855 43.9389H31.2325C35.9295 36.9722 36.1735 30.8611 36.1735 29.6389C36.1735 27.4389 35.8075 25.3611 35.1975 23.7722C35.1975 23.7722 34.2215 21.2667 32.6965 19.0056C32.8795 19.4944 33.1845 20.5333 33.3675 21.45C33.3675 21.5111 33.3675 21.5722 33.3675 21.6333C33.6725 22.1222 35.0145 24.5056 35.1975 27.1333C35.1975 27.1333 34.2215 25.7889 33.5505 24.9333C33.5505 26.4 33.3675 27.8056 33.0625 29.2111C33.0625 29.2111 34.4655 30.8611 35.0755 31.9C35.0755 31.9 34.6485 34.2222 33.7335 36.4222C32.8185 35.0778 31.5985 33.7333 31.5985 33.7333C30.9275 35.4444 30.0125 37.2167 29.0365 38.8056C29.0365 38.8056 30.8055 40.8833 31.2325 41.4944C30.6225 42.4111 30.1345 43.1444 29.5855 43.9389ZM32.6965 43.9389C33.5505 42.2889 34.5265 40.2722 35.1975 38.5611C35.1975 38.6222 35.5635 39.4778 35.8075 40.3333C36.2955 38.5611 36.6615 36.7278 36.8445 34.8333C36.7835 34.5889 36.6615 34.2222 36.6005 33.9778C36.6005 33.9778 36.9055 32.3889 37.0275 30.5556C37.2105 31.8389 37.2715 33.0611 37.2715 34.4056C37.2715 36.6667 37.0275 38.8056 36.4785 40.9444C36.2345 41.9833 35.8685 43.0222 35.5635 44H32.6965V43.9389Z" fill="#1414D2"/>
</g>
<path id="Shape" d="M58 22.0278V15H62.087V21.7833C62.087 24.4111 63.307 25.5111 65.686 25.5111C68.065 25.5111 69.285 24.4111 69.285 21.7833V15H73.372V22.0278C73.372 26.9167 70.932 29.0556 65.686 29.0556C60.44 29.0556 58 26.9167 58 22.0278ZM91.672 23.0056L84.108 15H80.082V28.75H83.864V20.0111L92.099 28.6889H95.393V15H91.611V23.0056H91.672ZM102.53 28.75H106.617V15H102.53V28.75ZM152.855 15H160.663C166.092 15 168.593 17.3833 168.593 21.8444C168.593 26.3056 166.092 28.6889 160.663 28.6889H152.855V15ZM156.942 25.0222H160.541C163.164 25.0222 164.384 24.0444 164.384 21.8444C164.384 19.6444 163.164 18.6667 160.541 18.6667H156.942V25.0222ZM137.3 23.3111H145.718V20.3778H137.3V18.3611H146.389V15H133.213V28.75H146.45V25.3889H137.3V23.3111ZM112.595 18.6667H117.841V28.6889H121.928V18.6667H127.174V15H112.534L112.595 18.6667Z" fill="#1414D2"/>
</g>
</g>
</g>
<defs>
<clipPath id="clip0_1_466">
<rect width="169" height="44" fill="white"/>
</clipPath>
</defs>
</svg>
