<svg width="150" height="36" viewBox="0 0 150 36" fill="none" xmlns="http://www.w3.org/2000/svg">
<g id="bitflyer_usa_logo.svg" clip-path="url(#clip0_1_429)">
<path id="Vector" d="M10.8173 0H0V10.8H10.8173V0Z" fill="#1980E5"/>
<path id="Vector_2" d="M10.8173 12.6001H0V23.4001H10.8173V12.6001Z" fill="#1980E5"/>
<path id="Vector_3" d="M10.8173 25.2002H0V36.0002H10.8173V25.2002Z" fill="#1980E5"/>
<path id="Vector_4" d="M23.4375 0H12.6202V10.8H23.4375V0Z" fill="#1980E5"/>
<path id="Vector_5" d="M36.0577 0H25.2404V10.8H36.0577V0Z" fill="#1980E5"/>
<path id="Vector_6" d="M18.0288 23.52C21.0823 23.52 23.5577 21.0486 23.5577 18C23.5577 14.9514 21.0823 12.48 18.0288 12.48C14.9753 12.48 12.5 14.9514 12.5 18C12.5 21.0486 14.9753 23.52 18.0288 23.52Z" fill="#FA8033"/>
<path id="Vector_7" d="M49.0384 26.46C49.488 26.6688 50.3005 26.88 51.8317 26.88C53.7548 26.88 56.6707 25.56 56.6707 21.06C56.6707 16.56 53.6346 15.84 52.4038 15.84C51.207 15.8488 50.0382 16.203 49.0384 16.86V26.46ZM45.4327 28.56V5.52002H49.0384V14.0112C50.2696 13.3958 51.628 13.0769 53.0048 13.08C54.3269 13.08 60.3966 13.7712 60.3966 21.18C60.3966 28.08 54.2356 29.76 51.8317 29.76C49.3077 29.76 46.3942 29.04 45.4327 28.56Z" fill="#242428"/>
<path id="Vector_8" d="M67.0072 8.42893C67.0134 8.86928 66.8883 9.30152 66.6477 9.67068C66.4072 10.0398 66.0622 10.3292 65.6564 10.5021C65.2507 10.6749 64.8027 10.7233 64.3693 10.6412C63.936 10.5591 63.5368 10.3502 63.2227 10.041C62.9086 9.73178 62.6937 9.3363 62.6054 8.90483C62.517 8.47337 62.5592 8.02541 62.7265 7.61794C62.8939 7.21046 63.1788 6.86189 63.5451 6.61654C63.9114 6.3712 64.3425 6.24017 64.7836 6.24013C65.0745 6.23469 65.3635 6.28735 65.6337 6.39503C65.9039 6.50271 66.1498 6.66323 66.357 6.86715C66.5641 7.07108 66.7284 7.31429 66.84 7.58249C66.9517 7.85069 67.0085 8.13848 67.0072 8.42893ZM62.9808 13.4401V29.5201H66.5865V13.4401H62.9808Z" fill="#242428"/>
<path id="Vector_9" d="M80.0765 26.0087C79.5068 26.3687 78.5741 26.8487 77.6125 26.8487C76.7423 26.8487 75.9611 26.4887 75.9611 24.5399V16.1999H79.776L80.4683 13.4399H75.9611V8.3999L72.3553 9.8399V13.4399H69.4707V16.1999H72.3553V25.4399C72.3553 27.6887 73.6173 29.7599 76.7712 29.7599C78.3048 29.7599 80.1678 29.2199 81.2784 28.4087L80.0765 26.0087Z" fill="#242428"/>
<path id="Vector_10" d="M96.0769 10.0802L96.7981 7.2002H83.9375V29.5202H87.5433V19.4714H95.8365V16.5914H87.5433V10.0802H96.0769Z" fill="#242428"/>
<path id="Vector_11" d="M103.048 5.52002H99.4423V29.52H103.048V5.52002Z" fill="#242428"/>
<path id="Vector_12" d="M137.229 21.4201C137.229 16.8601 135.065 13.0801 130.318 13.0801C125.63 13.0801 122.806 16.8601 122.806 21.4201C122.806 26.4601 125.871 29.7601 130.318 29.7601C133.082 29.7601 135.097 28.7089 136.447 27.4489L134.796 25.1089C133.503 26.1289 132.06 26.8801 130.618 26.8801C128.455 26.8801 126.45 25.1785 126.306 22.5289H137.169C137.21 22.1608 137.23 21.7905 137.229 21.4201ZM130.318 15.8401C132.399 15.8401 133.753 17.3977 133.854 19.8889H126.308C126.46 17.6569 128.277 15.8401 130.318 15.8401Z" fill="#242428"/>
<path id="Vector_13" d="M147.837 13.0801C146.154 13.0801 144.952 13.9849 143.51 15.3385L143.029 13.4401H140.145V29.5201H143.75V17.9617C144.471 17.2969 145.697 16.2289 146.964 16.2289C147.583 16.2345 148.192 16.3893 148.738 16.6801L150 13.6489C149.34 13.2765 148.595 13.0806 147.837 13.0801Z" fill="#242428"/>
<path id="Vector_14" d="M112.483 29.3087L105.452 13.4399H109.178L114.255 25.4999L118.312 13.4399H121.918L116.659 28.1399C114.255 34.8599 111.611 35.9999 109.447 35.9999C108.294 35.9997 107.163 35.6887 106.173 35.0999L107.375 32.2799C108.055 32.5893 108.792 32.7528 109.538 32.7599C110.74 32.7599 112.002 30.6599 112.483 29.3087Z" fill="#242428"/>
</g>
<defs>
<clipPath id="clip0_1_429">
<rect width="150" height="36" fill="white"/>
</clipPath>
</defs>
</svg>
