<svg width="221" height="14" viewBox="0 0 221 14" fill="none" xmlns="http://www.w3.org/2000/svg">
<g id="american_express_logo.svg" clip-path="url(#clip0_1_462)">
<g id="Group">
<path id="Vector" d="M216.393 5.40591H213.012C212.26 5.40591 211.786 4.93499 211.786 4.28748C211.786 3.63997 212.349 3.25735 213.012 3.25735H219.122L220.535 0.176758H213.012C209.908 0.176758 208.118 2.04081 208.118 4.47389C208.118 7.08356 209.809 8.58461 212.537 8.58461H215.918C216.67 8.58461 217.144 9.05553 217.144 9.70304C217.144 10.3604 216.67 10.8215 215.918 10.8215H208.583V13.9021H215.918C219.023 13.9021 220.812 12.1263 220.812 9.51663C220.812 6.89715 219.211 5.40591 216.393 5.40591ZM202.947 5.40591H199.566C198.815 5.40591 198.34 4.93499 198.34 4.28748C198.34 3.63997 198.904 3.25735 199.566 3.25735H205.676L207.09 0.176758H199.566C196.462 0.176758 194.673 2.04081 194.673 4.47389C194.673 7.08356 196.363 8.58461 199.092 8.58461H202.473C203.224 8.58461 203.699 9.05553 203.699 9.70304C203.699 10.3604 203.224 10.8215 202.473 10.8215H195.137V13.9021H202.473C205.577 13.9021 207.367 12.1263 207.367 9.51663C207.367 6.89715 205.765 5.40591 202.947 5.40591ZM181.504 13.8039H193.071V10.7234H185.172V8.4865H192.883V5.40591H185.172V3.25735H193.071V0.186569H181.504V13.8039ZM174.257 5.96513H170.402V3.25735H174.257C175.384 3.25735 175.948 3.91467 175.948 4.66029C175.859 5.40591 175.295 5.96513 174.257 5.96513ZM179.626 4.57199C179.626 1.96232 177.747 0.186569 174.732 0.186569H166.833V13.8138H170.5V9.05552H171.815L175.958 13.8138H180.476L175.958 8.86912C178.212 8.3982 179.626 6.71075 179.626 4.57199ZM159.873 6.24964H155.918V3.26716H159.873C161 3.26716 161.563 3.92448 161.563 4.7584C161.474 5.59232 160.911 6.24964 159.873 6.24964ZM160.248 0.186569H152.25V13.8138H155.928V9.33023H160.159C163.264 9.33023 165.142 7.36807 165.142 4.7584C165.142 2.05062 163.264 0.186569 160.248 0.186569ZM151.598 0.186569H146.892L143.323 4.29729L139.744 0.186569H134.949L140.97 6.90696L134.86 13.8138H139.566L143.234 9.51663L147 13.8138H151.795L145.587 6.81867L151.598 0.186569ZM122.729 13.8039H134.296V10.7234H126.397V8.4865H134.109V5.40591H126.397V3.25735H134.296V0.186569H122.729V13.8039ZM109.838 8.4865L104.192 0.176758H99.5854V13.8039H103.253V5.1214L108.987 13.8039H113.407V0.186569H109.838V8.4865ZM88.4929 8.02539L90.3713 3.45356L92.2498 8.02539H88.4929ZM88.1172 0.186569L82.0965 13.8138H86.14L87.267 11.0177H93.6635L94.8894 13.8138H99.0318L92.8232 0.186569H88.1172ZM76.0756 7.09337V6.80885C76.0756 4.7584 77.2027 3.35545 79.5556 3.35545H83.698V0.186569H79.2788C74.7608 0.186569 72.4177 3.08075 72.4177 6.80885V7.09337C72.4177 11.2924 75.0475 13.7157 79.091 13.7157H80.3169L81.8196 10.6351H79.6545C77.4894 10.7332 76.0756 9.51663 76.0756 7.09337ZM66.8615 0.186569V13.8138H70.5294V0.186569H66.8615ZM59.5259 5.96513H55.6702V3.25735H59.5259C60.6529 3.25735 61.2164 3.91467 61.2164 4.66029C61.2164 5.40591 60.6529 5.96513 59.5259 5.96513ZM64.8843 4.57199C64.8843 1.96232 63.0059 0.186569 59.9905 0.186569H52.0913V13.8138H55.7591V9.05552H57.074L61.2164 13.8138H65.8235L61.3054 8.86912C63.5694 8.3982 64.8843 6.71075 64.8843 4.57199ZM38.0823 13.8039H49.6494V10.7234H41.7502V8.4865H49.4615V5.40591H41.7502V3.25735H49.6494V0.186569H38.0823V13.8039ZM26.4263 8.77101L23.3219 0.186569H17.5879V13.8138H21.1568V4.01278L24.7258 13.8138H28.018L31.6858 4.01278V13.8138H35.2548V0.186569H29.5207L26.4263 8.77101ZM6.48546 8.02539L8.36387 3.45356L10.2423 8.02539C10.2522 8.02539 6.48546 8.02539 6.48546 8.02539ZM6.02079 0.186569L0 13.8138H4.04352L5.17057 11.0177H11.5671L12.793 13.8138H16.9354L10.8256 0.186569H6.02079Z" fill="#006FCF"/>
</g>
</g>
<defs>
<clipPath id="clip0_1_462">
<rect width="221" height="14" fill="white"/>
</clipPath>
</defs>
</svg>
