<svg width="150" height="23" viewBox="0 0 150 23" fill="none" xmlns="http://www.w3.org/2000/svg">
<g id="usa_today_logo.svg" clip-path="url(#clip0_1_473)">
<path id="path6918" d="M22.4579 11.25C22.4579 17.4632 17.4308 22.5 11.2283 22.5C5.02707 22.5 0 17.4632 0 11.25C0 5.03679 5.02707 0 11.2283 0C17.4308 0 22.4579 5.03679 22.4579 11.25Z" fill="#00ABE6"/>
<path id="path42590" d="M32.9517 16.0782C31.1842 16.0782 30.1978 14.9946 30.1978 13.0832V3.38086H25.8166V13.0581C25.8166 17.3073 28.4053 19.7354 32.9517 19.7354C37.4981 19.7354 40.0867 17.3073 40.0867 13.0581V3.38086H35.7056V13.0832C35.7056 14.9946 34.7192 16.0782 32.9517 16.0782Z" fill="#33261C"/>
<path id="path42586" d="M47.8196 19.7357C51.66 19.7357 54.1785 17.6839 54.1785 14.6387C54.1785 12.4665 52.8817 10.7909 49.4418 9.84778L48.2402 9.51667C46.5227 9.04509 45.8868 8.52837 45.8868 7.77085C45.8868 6.96817 46.5928 6.52168 47.8396 6.52168C49.3517 6.52168 50.974 7.36951 52.1056 8.33774L54.2937 5.57854C52.5763 4.01833 50.268 3.0752 47.8196 3.0752C44.1194 3.0752 41.5307 5.08188 41.5307 8.17219C41.5307 10.5551 43.0829 12.1153 45.9569 12.8678L46.9483 13.1287C49.0914 13.6956 49.8224 14.122 49.8224 14.9698C49.8224 15.8428 49.0663 16.2892 47.7945 16.2892C45.9119 16.2892 44.3547 15.607 43.0829 14.4732L40.9649 17.1421C42.7324 18.7926 45.2059 19.7357 47.8196 19.7357Z" fill="#33261C"/>
<path id="path42582" d="M66.6827 19.4294H71.139L65.2707 3.38086H60.1836L54.3203 19.4294H58.6514L59.6678 16.4344H65.6713L66.6827 19.4294ZM60.7744 13.1735L62.6821 7.55979L64.5647 13.1735H60.7744Z" fill="#33261C"/>
<path id="path42578" d="M79.5898 19.4294H83.971V6.92266H88.7327V3.38086H74.8331V6.92266H79.5898V19.4294Z" fill="#33261C"/>
<path id="path42570" d="M96.9396 19.7357C101.741 19.7357 105.251 16.3143 105.251 11.428C105.251 6.54677 101.741 3.0752 96.9396 3.0752C92.1328 3.0752 88.6229 6.54677 88.6229 11.428C88.6229 16.3143 92.1328 19.7357 96.9396 19.7357ZM96.9396 16.1036C94.6564 16.1036 93.0741 14.2123 93.0741 11.428C93.0741 8.64376 94.6564 6.71232 96.9396 6.71232C99.2228 6.71232 100.8 8.64376 100.8 11.428C100.8 14.2123 99.2228 16.1036 96.9396 16.1036Z" fill="#33261C"/>
<path id="path42566" d="M106.766 19.4294H113.075C117.812 19.4294 121.182 16.1233 121.182 11.4076C121.182 6.68688 117.812 3.38086 113.075 3.38086H106.766V19.4294ZM111.077 15.9628V6.85243H113.075C115.383 6.85243 116.8 8.66849 116.8 11.4076C116.8 14.1417 115.383 15.9628 113.075 15.9628H111.077Z" fill="#33261C"/>
<path id="path42558" d="M132.735 19.4294H137.192L131.323 3.38086H126.236L120.373 19.4294H124.704L125.72 16.4344H131.724L132.735 19.4294ZM126.827 13.1735L128.735 7.55979L130.617 13.1735H126.827Z" fill="#33261C"/>
<path id="path42562" d="M144.327 13.6501L150 3.38086H145.058L142.113 9.75209L139.144 3.38086H134.197L139.875 13.6501V19.4294H144.327V13.6501Z" fill="#33261C"/>
</g>
<defs>
<clipPath id="clip0_1_473">
<rect width="150" height="22.5" fill="white"/>
</clipPath>
</defs>
</svg>
