<svg width="220" height="22" viewBox="0 0 220 22" fill="none" xmlns="http://www.w3.org/2000/svg">
<g id="bank_of_america_logo.svg" clip-path="url(#clip0_1_420)">
<path id="Vector" d="M203.072 21.0846C203.072 20.5964 203.469 20.1997 203.989 20.1997C204.508 20.1997 204.906 20.5964 204.906 21.0846C204.906 21.5728 204.508 22 203.989 22C203.469 22 203.072 21.6033 203.072 21.0846ZM203.256 21.0846C203.256 21.4813 203.592 21.8169 204.019 21.8169C204.417 21.8169 204.753 21.5118 204.753 21.0846C204.753 20.6879 204.417 20.3828 204.019 20.3828C203.561 20.3828 203.256 20.7184 203.256 21.0846Z" fill="#E31837"/>
<path id="Vector_2" d="M204.447 21.6031H204.263L203.958 21.1454H203.775V21.6031H203.652V20.5962H204.111C204.202 20.5962 204.294 20.5962 204.355 20.6572C204.447 20.6877 204.477 20.7793 204.477 20.8708C204.477 21.0539 204.325 21.1454 204.141 21.1454L204.447 21.6031ZM203.958 21.0234C204.111 21.0234 204.294 21.0539 204.294 20.8708C204.294 20.7488 204.172 20.7182 204.05 20.7182H203.775V21.0234H203.958Z" fill="#E31837"/>
<path id="Vector_3" d="M199.619 21.9998C206.036 16.5075 215.05 11.1677 220 9.24532C219.236 8.75711 218.044 8.05531 216.7 7.29248C210.314 9.39789 202.858 14.0664 196.197 19.3452C197.328 20.1996 198.519 21.0844 199.619 21.9998Z" fill="#E31837"/>
<path id="Vector_4" d="M196.686 7.07917C195.739 6.62147 194.7 6.19428 193.906 5.82812C191.492 7.01814 188.344 8.81842 184.372 11.6561C185.228 12.1138 186.144 12.6631 187.122 13.2123C190.178 10.9543 193.264 8.81842 196.686 7.07917Z" fill="#012169"/>
<path id="Vector_5" d="M202.4 4.45492C201.239 3.81415 197.206 2.319 194.425 1.67822C193.6 1.98335 192.439 2.44105 191.644 2.7767C192.653 3.05132 196.411 4.05825 199.619 5.67545C200.444 5.27878 201.606 4.79057 202.4 4.45492Z" fill="#E31837"/>
<path id="Vector_6" d="M188.742 4.05811C185.167 5.70582 181.408 7.96379 179.361 9.27586C180.094 9.6115 180.828 9.88612 181.836 10.3743C186.358 7.32302 189.903 5.46171 191.308 4.85145C190.3 4.48529 189.353 4.24118 188.742 4.05811Z" fill="#012169"/>
<path id="Vector_7" d="M205.089 3.50902C205.914 3.2344 206.861 2.99029 207.686 2.74619C205.303 1.73925 202.309 0.67129 199.62 0C199.192 0.122053 197.909 0.457698 197.023 0.732316C197.939 1.00693 200.964 1.70874 205.089 3.50902ZM190.025 14.982C191.003 15.5617 192.042 16.3551 193.05 17.0264C199.742 11.8391 206.342 7.84189 213.584 5.58391C212.575 5.06519 211.689 4.60749 210.559 4.05825C206.22 5.15673 198.795 8.1165 190.025 14.982Z" fill="#E31837"/>
<path id="Vector_8" d="M0 20.4131H4.88889C7.36389 20.4131 8.525 19.1316 8.525 17.3313C8.525 15.8667 7.76111 14.8903 6.17222 14.5851C7.57778 14.2495 8.21944 13.3951 8.21944 12.1441C8.21944 10.5574 7.05833 9.27583 4.58333 9.27583H0.0305556V20.4131H0ZM4.24722 15.6836C5.16389 15.6836 5.80556 16.1413 5.80556 17.0567C5.80556 18.0331 5.19444 18.4298 4.24722 18.4298H2.65833V15.6531H4.24722V15.6836ZM3.94167 11.2287C4.85833 11.2287 5.5 11.6253 5.5 12.5407C5.5 13.4561 4.88889 13.8528 3.94167 13.8528H2.65833V11.2287H3.94167ZM18.3944 9.24532H15.6444L11.4583 20.4131H14.2389L15.0028 18.0941H19.0361L19.8 20.4131H22.6111L18.3944 9.24532ZM17.0194 11.9305L18.3333 16.0498H15.6444L17.0194 11.9305ZM36.5444 9.24532H34.0083V16.721L29.2417 9.24532H26.4V20.4131H28.9361V12.9679L33.7028 20.4131H36.5444V9.24532ZM48.2472 20.4131L44.5806 14.7377V20.4131H41.8611V9.24532H44.5806V14.6156L48.0639 9.24532H51.0889L47.4222 14.6156L51.425 20.4131H48.2472ZM61.05 14.8292C61.05 17.0567 62.3944 18.4298 64.1361 18.4298C65.8778 18.4298 67.2222 17.0567 67.2222 14.8292C67.2222 12.6018 65.8778 11.2287 64.1361 11.2287C62.3944 11.2287 61.05 12.6018 61.05 14.8292ZM58.1778 14.8292C58.2083 11.5643 60.5 9.00122 64.1361 9.00122C67.7722 9.00122 70.0639 11.5643 70.0944 14.8292C70.0639 18.0941 67.7722 20.6572 64.1361 20.6572C60.5 20.6572 58.2083 18.0941 58.1778 14.8292ZM73.8222 20.4131H76.5417V16.0192H80.0861V13.8833H76.5417V11.3812H80.8194L81.3083 9.24532H73.8222V20.4131ZM93.9889 9.24532H91.2389L87.0528 20.4131H89.8333L90.5972 18.0941H94.6306L95.3944 20.4131H98.2056L93.9889 9.24532ZM92.6139 11.9305L93.9278 16.0498H91.2389L92.6139 11.9305ZM114.339 9.24532H111.161L108.258 15.2869L105.356 9.24532H102.178V20.4131H104.622V12.9374L108.228 20.4131L111.833 12.9374V20.4131H114.369L114.339 9.24532ZM119.625 20.4131H127.264V18.2772H122.344V15.7751H126.225V13.7002H122.344V11.3812H126.836L127.325 9.24532H119.625V20.4131ZM137.622 20.4131H140.586L137.806 15.6836C139.333 15.2564 140.067 14.1885 140.067 12.6323C140.067 10.6184 138.844 9.27583 136.094 9.27583H131.786V20.4437H134.444V16.0498H135.178L137.622 20.4131ZM135.575 11.3202C136.706 11.3202 137.286 11.8084 137.286 12.7543C137.286 13.7002 136.706 14.1885 135.575 14.1885H134.414V11.3202H135.575ZM144.65 20.4131H147.369V9.27583H144.65V20.4131ZM160.753 17.4229C159.714 18.1552 158.797 18.3993 157.85 18.3993C155.772 18.3993 154.306 16.9652 154.306 14.8292C154.306 12.6933 155.742 11.2592 157.758 11.2592C158.675 11.2592 159.592 11.5033 160.6 12.2356V9.70302C159.683 9.1843 158.614 8.9707 157.422 8.9707C153.725 8.9707 151.403 11.5338 151.372 14.7987C151.403 18.0941 153.664 20.6267 157.422 20.6267C158.675 20.6267 159.744 20.4131 160.722 19.8944V17.4229H160.753ZM170.714 9.24532H167.964L163.778 20.4131H166.558L167.322 18.0941H171.356L172.119 20.4131H174.931L170.714 9.24532ZM169.339 11.9305L170.653 16.0498H167.964L169.339 11.9305Z" fill="#012169"/>
</g>
<defs>
<clipPath id="clip0_1_420">
<rect width="220" height="22" fill="white"/>
</clipPath>
</defs>
</svg>
