<svg width="171" height="28" viewBox="0 0 171 28" fill="none" xmlns="http://www.w3.org/2000/svg">
<g id="hdfc_bank_logo.svg" clip-path="url(#clip0_1_444)">
<g id="layer1">
<g id="g11008">
<path id="path1556" d="M0.0216064 0.0333023H171.025V28.0889H0.0216064V0.0333023Z" fill="#004C8F"/>
<path id="path1558" d="M28.5703 0.0333023H171.025V28.0889H28.5703V0.0333023Z" fill="#004C8F"/>
<path id="path1560" d="M37.5096 20.5791V7.25975H41.9794V11.794H46.1607V7.25975H50.6305V20.5791H46.1607V15.4781H41.9794V20.5791H37.5096Z" fill="white"/>
<path id="path1562" d="M57.6958 10.6605H58.8493C59.7144 10.6605 60.2911 10.8021 60.7237 10.9438C61.012 11.0855 61.3004 11.2272 61.4446 11.5106C61.5888 11.794 61.733 12.0774 61.8772 12.5025C62.0214 12.9276 62.0213 13.3526 62.0213 13.9194C62.0213 14.6279 61.8772 15.3364 61.733 15.9031C61.4446 16.4699 61.1562 16.7533 60.7237 17.0367C60.2911 17.3201 59.7144 17.3201 58.8493 17.3201H57.6958V10.6605ZM59.2818 20.5791C60.2911 20.5791 61.1562 20.4374 61.8772 20.2957C62.5981 20.154 63.1748 19.8706 63.6074 19.5872C64.0399 19.3038 64.4725 18.8788 64.905 18.4537C65.3376 17.8869 65.626 17.3201 65.9143 16.4699C66.2027 15.7614 66.3469 14.7696 66.3469 13.7777C66.3469 12.3608 66.0585 11.0855 65.4818 10.0936C64.905 9.10179 64.1841 8.39331 63.1748 7.96823C62.1655 7.54314 61.0121 7.25975 59.5702 7.25975H53.3702V20.5791H59.2818Z" fill="white"/>
<path id="path1564" d="M68.3652 20.5791V7.25975H78.8906V10.5188H72.6907V12.6442H77.593V15.7614H72.6907V20.4374L68.3652 20.5791Z" fill="white"/>
<path id="path1566" d="M93.742 12.5023H89.5606C89.4164 11.7938 89.2722 11.3688 88.8397 10.9437C88.4071 10.5186 87.9746 10.3769 87.2536 10.3769C86.5327 10.3769 85.8118 10.6603 85.3793 11.2271C84.9467 11.7939 84.6583 12.7857 84.6583 14.061C84.6583 15.0528 84.8025 15.6196 84.9467 16.1864C85.0909 16.6115 85.5234 17.0365 85.8118 17.3199C86.2443 17.6033 86.6769 17.6033 87.2536 17.6033C87.9746 17.6033 88.4071 17.4617 88.8397 17.0366C89.2722 16.6115 89.4164 16.1864 89.5606 15.3362H93.8861C93.742 16.1864 93.5978 16.8949 93.3094 17.4616C93.021 18.0284 92.7327 18.5952 92.156 19.162C91.5792 19.7288 90.8583 20.1538 90.1373 20.4372C89.4164 20.7206 88.4071 20.8623 87.3978 20.8623C86.3885 20.8623 85.3792 20.7206 84.5141 20.4372C83.649 20.1538 82.9281 19.7288 82.3514 19.162C81.7746 18.5952 81.3421 18.0284 80.9095 17.3199C80.477 16.3281 80.1886 15.1945 80.1886 14.061C80.1886 13.0691 80.3328 12.0772 80.7653 11.2271C81.0537 10.3769 81.6304 9.52673 82.2072 8.95995C82.7839 8.39317 83.5049 7.96808 84.2258 7.543C85.0909 7.11791 86.1002 6.97623 87.2536 6.97623C88.2629 6.97623 89.1281 7.1179 89.9932 7.40129C90.8583 7.68468 91.5792 8.10976 92.156 8.67654C92.7327 9.24332 93.1652 9.81012 93.4536 10.5186C93.4536 11.0854 93.5978 11.6521 93.742 12.5023Z" fill="white"/>
<path id="path1568" d="M107.872 10.3771C108.449 10.3771 108.881 10.3771 109.169 10.5188C109.458 10.6605 109.602 10.8021 109.746 10.9438C109.89 11.0855 110.035 11.3689 110.035 11.6523C110.035 11.9357 109.89 12.2191 109.602 12.5025C109.314 12.7859 108.881 12.7859 108.16 12.7859H106.43V10.5188H107.872V10.3771ZM109.025 20.5791C110.035 20.5791 110.755 20.5791 111.188 20.4374C111.621 20.2957 112.053 20.154 112.486 20.0123C112.918 19.7289 113.207 19.5872 113.495 19.3038C113.783 19.0204 114.072 18.5954 114.216 18.1703C114.36 17.7452 114.504 17.1784 114.504 16.6116C114.504 15.7615 114.36 15.1947 113.928 14.6279C113.495 14.0611 112.918 13.7777 112.342 13.4944C113.495 12.7859 114.072 11.794 114.072 10.6605C114.072 9.52691 113.495 8.53501 112.486 7.96823C111.765 7.54314 110.467 7.25975 108.737 7.25975H102.104V20.5791H109.025ZM108.304 15.053C109.169 15.053 109.746 15.1947 110.035 15.3364C110.323 15.6198 110.467 15.9032 110.467 16.1866C110.467 16.6116 110.323 16.895 110.035 17.1784C109.746 17.4618 109.169 17.4618 108.304 17.4618H106.43V14.9113L108.304 15.053Z" fill="white"/>
<path id="path1570" d="M124.309 16.1866H121.425L122.867 11.3689L124.309 16.1866ZM120.271 20.5791L120.848 18.8787H125.318L125.895 20.5791H130.364L125.462 7.25975H120.992L116.09 20.5791H120.271Z" fill="white"/>
<path id="path1572" d="M131.95 20.5791V7.25975H136.132L140.746 14.3445V7.25975H144.927V20.5791H140.746L136.132 13.636V20.5791H131.95Z" fill="white"/>
<path id="path1574" d="M147.955 20.5791V7.25975H152.281V11.794L156.318 7.40146H161.508L156.606 12.3608L162.085 20.5791H156.75L153.578 15.3364L152.425 16.4699V20.5791H147.955Z" fill="white"/>
<path id="path1576" d="M0.0216064 0.0333023H28.5702V28.0889H0.0216064V0.0333023Z" fill="#ED232A"/>
<path id="path1578" d="M5.06848 4.85077H23.5241V23.1294H5.06848V4.85077Z" fill="white"/>
<path id="path1580" d="M12.8536 0.0333023H15.7373V28.0889H12.8536V0.0333023Z" fill="white"/>
<path id="path1582" d="M0.0216064 12.6441H28.5702V15.478H0.0216064V12.6441Z" fill="white"/>
<path id="path1584" d="M9.97083 9.81042H18.4777V18.1704H9.97083V9.81042Z" fill="#004C8F"/>
</g>
</g>
</g>
<defs>
<clipPath id="clip0_1_444">
<rect width="171" height="28" fill="white"/>
</clipPath>
</defs>
</svg>
